<svg width="40" height="40" viewBox="0 0 40 40" fill="none" xmlns="http://www.w3.org/2000/svg">
<path d="M20 5C11.7 5 5 11.7 5 20C5 28.3 11.7 35 20 35C28.3 35 35 28.3 35 20C35 11.7 28.3 5 20 5ZM20 32C13.4 32 8 26.6 8 20C8 13.4 13.4 8 20 8C26.6 8 32 13.4 32 20C32 26.6 26.6 32 20 32Z" fill="#FFDB70"/>
<path d="M20 12C15.6 12 12 15.6 12 20C12 24.4 15.6 28 20 28C24.4 28 28 24.4 28 20C28 15.6 24.4 12 20 12ZM20 25C17.2 25 15 22.8 15 20C15 17.2 17.2 15 20 15C22.8 15 25 17.2 25 20C25 22.8 22.8 25 20 25Z" fill="#FFDB70"/>
</svg>
